# xmcd
#
# Track frame offsets:
# 150
# 17025
# 29313
# 41024
# 53495
# 65619
# 76687
# 88047
# 101367
# 111991
# 123551
# 137317
# 148255
# 157261
# 168330
# 178426
#
# Disc length: 2556 seconds
#
#
# Revision: 0
# Processed by: cddbd v1.4PL0 Copyright (c) Steve Scherf et al.
# Submitted via: FreeRIP 2.12 
#
DISCID=d909fa10
DTITLE=Tabby Thomas - King of the Swamp Blues Volume 1
DYEAR=1996
DGENRE=Blues
TTITLE0=Ball Head Lena
TTITLE1=Glass Jar Blues
TTITLE2=My Baby's Got It
TTITLE3=C.C. Rider
TTITLE4=Tomorrow
TTITLE5=Roll on Old Mule
TTITLE6=I Say
TTITLE7=Popeye Train
TTITLE8=Leave it Like it is
TTITLE9=Hoodo Party
TTITLE10=Keep on Trying
TTITLE11=You Put a Hold in my Head
TTITLE12=He's Got the Whole World in His Hands
TTITLE13=Mr Buzzerd
TTITLE14=Play Girl
TTITLE15=mmm...I Don't Care
EXTD=
EXTT0=
EXTT1=
EXTT2=
EXTT3=
EXTT4=
EXTT5=
EXTT6=
EXTT7=
EXTT8=
EXTT9=
EXTT10=
EXTT11=
EXTT12=
EXTT13=
EXTT14=
EXTT15=
PLAYORDER=
